# xmcd CD database file
#
# Track frame offsets:
#	150
#	15585
#	35773
#	52045
#	72855
#	96515
#	104171
#	118549
#	128181
#	144312
#	155640
#	168390
#	191933
#
# Disc length: 2854 seconds
#
# Revision: 0
# Processed by: cddbd v1.5.2PL0 Copyright (c) Steve Scherf et al.
# Submitted via: CDex 1.70beta2
#
DISCID=c30b240d
DTITLE=Rosie Brown - Strange Recollection
DYEAR=1900
DGENRE=Jazz
TTITLE0=High moon
TTITLE1=Strange recollection
TTITLE2=Missouri bluebirds
TTITLE3=Blow the man down
TTITLE4=The walker
TTITLE5=Mega fauna
TTITLE6=If you were a bluebird
TTITLE7=Hawaii
TTITLE8=Galinette
TTITLE9=In dreams
TTITLE10=Minor flora
TTITLE11=Odessa
TTITLE12=Strange recollection(4Four remix)
EXTD=
EXTT0=
EXTT1=
EXTT2=
EXTT3=
EXTT4=
EXTT5=
EXTT6=
EXTT7=
EXTT8=
EXTT9=
EXTT10=
EXTT11=
EXTT12=
PLAYORDER=
